/* XPM */
static char * kreversi_xpm[] = {
"32 32 237 2",
"  	c None",
". 	c #020204",
"+ 	c #FBF6D4",
"@ 	c #BAB69C",
"# 	c #848272",
"$ 	c #F2EACC",
"% 	c #DEA29C",
"& 	c #DE7664",
"* 	c #C67E6C",
"= 	c #C6AAA4",
"- 	c #827E6C",
"; 	c #FAF2D4",
"> 	c #F4EECD",
", 	c #6B6A5C",
"' 	c #E6E2B4",
") 	c #DECAB4",
"! 	c #DA4A44",
"~ 	c #FA6A6C",
"{ 	c #FE3234",
"] 	c #E60204",
"^ 	c #AA0204",
"/ 	c #925A4C",
"( 	c #E5E2C5",
"_ 	c #7C7A6D",
": 	c #6A665D",
"< 	c #D6564C",
"[ 	c #FA9A9C",
"} 	c #FEF5F4",
"| 	c #FED1D1",
"1 	c #F20204",
"2 	c #CE0A0C",
"3 	c #730604",
"4 	c #8A867C",
"5 	c #EDE6C5",
"6 	c #EEBABC",
"7 	c #ED0604",
"8 	c #FE9E9C",
"9 	c #FEC6C4",
"0 	c #DD0604",
"a 	c #B90E0C",
"b 	c #4E322C",
"c 	c #E20604",
"d 	c #EEEACB",
"e 	c #EAB6B4",
"f 	c #FD1A19",
"g 	c #FE5E5C",
"h 	c #F22A2C",
"i 	c #A80E0C",
"j 	c #620604",
"k 	c #2E1A14",
"l 	c #CC0604",
"m 	c #AA0A0C",
"n 	c #DCBABC",
"o 	c #BE0604",
"p 	c #E20E0C",
"q 	c #DE0E0C",
"r 	c #9D0A09",
"s 	c #860604",
"t 	c #3A0204",
"u 	c #3E2B24",
"v 	c #830A04",
"w 	c #320204",
"x 	c #EAE2C4",
"y 	c #E2DEBC",
"z 	c #96463C",
"A 	c #A50604",
"B 	c #7B0A04",
"C 	c #490204",
"D 	c #160204",
"E 	c #6B6254",
"F 	c #6E5E54",
"G 	c #666657",
"H 	c #C8C6AC",
"I 	c #5E2A24",
"J 	c #5A0604",
"K 	c #560204",
"L 	c #2E0204",
"M 	c #D5D2B5",
"N 	c #D2CEB7",
"O 	c #DADBC2",
"P 	c #D2D6BC",
"Q 	c #3C3A37",
"R 	c #423E38",
"S 	c #7C6A5C",
"T 	c #DAD6B7",
"U 	c #767664",
"V 	c #7E7E6C",
"W 	c #656255",
"X 	c #54524E",
"Y 	c #5E5A4C",
"Z 	c #6D6E5F",
"` 	c #4C4A48",
" .	c #727265",
"..	c #F6F6D4",
"+.	c #E6BABC",
"@.	c #CACAB4",
"#.	c #B6B6B4",
"$.	c #7676BC",
"%.	c #CECAAB",
"&.	c #D66654",
"*.	c #DA362C",
"=.	c #D22624",
"-.	c #A6322C",
";.	c #9A7264",
">.	c #CED4BC",
",.	c #5A5E4C",
"'.	c #E9EAD4",
").	c #C6D6BC",
"!.	c #CA927C",
"~.	c #DE3E34",
"{.	c #DE2E2C",
"].	c #C22E24",
"^.	c #9E4A44",
"/.	c #A19E87",
"(.	c #726E64",
"_.	c #AAA69C",
":.	c #2E2EEC",
"<.	c #363AF4",
"[.	c #161AF4",
"}.	c #0206C7",
"|.	c #0A0E8F",
"1.	c #6E6E74",
"2.	c #BEBA9C",
"3.	c #D6C2BC",
"4.	c #E2423C",
"5.	c #D60A0C",
"6.	c #7A5A4C",
"7.	c #EAEEDC",
"8.	c #F24A44",
"9.	c #BA0A0C",
"0.	c #6E221C",
"a.	c #B0AE94",
"b.	c #2E32DC",
"c.	c #7682FC",
"d.	c #EEF6FC",
"e.	c #A6AEFC",
"f.	c #0202C4",
"g.	c #0206AC",
"h.	c #0E0E58",
"i.	c #DE9A84",
"j.	c #FA5A5C",
"k.	c #D50E0C",
"l.	c #3E0A0C",
"m.	c #9C9284",
"n.	c #6E6A6C",
"o.	c #E6261C",
"p.	c #C80E0C",
"q.	c #7A0204",
"r.	c #625244",
"s.	c #BABAB9",
"t.	c #0202EF",
"u.	c #BAC2FC",
"v.	c #E3EAFC",
"w.	c #020A9D",
"x.	c #020264",
"y.	c #DE463C",
"z.	c #FED6D4",
"A.	c #960604",
"B.	c #360604",
"C.	c #72665C",
"D.	c #FE9694",
"E.	c #DE0204",
"F.	c #222AF4",
"G.	c #969AEC",
"H.	c #3B42CF",
"I.	c #020A8F",
"J.	c #02024C",
"K.	c #3A3634",
"L.	c #FA0404",
"M.	c #9C0E0C",
"N.	c #220404",
"O.	c #6A5A4C",
"P.	c #F40604",
"Q.	c #020AD4",
"R.	c #030667",
"S.	c #020229",
"T.	c #43423F",
"U.	c #120604",
"V.	c #927E6C",
"W.	c #DEC6C4",
"X.	c #AE1A14",
"Y.	c #4E4234",
"Z.	c #7A7667",
"`.	c #C6C2A4",
" +	c #1E1E84",
".+	c #020659",
"++	c #020239",
"@+	c #060614",
"#+	c #CABAB4",
"$+	c #861E1C",
"%+	c #920A0C",
"&+	c #1A0E0C",
"*+	c #968674",
"=+	c #02021C",
"-+	c #AEAA94",
";+	c #72524C",
">+	c #1E0204",
",+	c #261214",
"'+	c #D2DABC",
")+	c #8E7E6C",
"!+	c #522624",
"~+	c #302E28",
"{+	c #DEDABC",
"]+	c #A6A28C",
"^+	c #464644",
"/+	c #4E4E44",
"(+	c #625E54",
"_+	c #B6AEA4",
":+	c #5E5E74",
"<+	c #3236E4",
"[+	c #9E9A84",
"}+	c #9B9684",
"|+	c #626EFC",
"1+	c #B2BAFC",
"2+	c #0A0EDC",
"3+	c #868674",
"4+	c #F2FAFC",
"5+	c #A6B2FC",
"6+	c #8D8A78",
"7+	c #1216CC",
"8+	c #020EA4",
"9+	c #969684",
"0+	c #96927D",
"a+	c #6A6EBC",
"b+	c #181EF4",
"c+	c #464ED4",
"d+	c #9692A4",
"e+	c #0206DC",
"f+	c #020AB3",
"g+	c #020A6F",
"h+	c #C2BEA1",
"i+	c #2A2A84",
"j+	c #928E7C",
"k+	c #121254",
"l+	c #B6B298",
"m+	c #968A74",
"n+	c #90867C",
"                                                                ",
"  . . . . . . . . . . . . . . . . . . . . . . . . . . . . . . . ",
"  . + + + + + + + + @ # $ $ $ % & * = $ $ - $ $ $ % & * = $ $ . ",
"  . + + + + ; ; > > @ , ' ) ! ~ { ] ^ / ( _ ' ) ! ~ { ] ^ / ( . ",
"  . + + + + ; ; > > @ : ' < [ } | 1 2 3 4 # ( < [ ; | 1 2 3 # . ",
"  . + + ; ; > $ $ 5 @ , 6 7 8 } 9 0 a 3 b _ 6 c [ } 9 0 a 3 b . ",
"  . + ; ; > > $ $ d @ , e ] f g h 2 i j k , e ] f g h l m j k . ",
"  . + $ $ $ $ 5 5 5 @ , n o p q 2 r s t u _ n o p q 2 m v w u . ",
"  . + d 5 5 5 5 ( x @ , y z A a r B C D E # y z ^ a r 3 C D F . ",
"  . + 5 d 5 5 x x ( @ G x H I J K L D u M _ x H I K K w D u N . ",
"  . @ @ @ @ @ @ @ @ @ : y O P E Q R S T ( U y O P E Q Q S T y . ",
"  . V W W W , G W W : X 4 Y : U Z Z Z W G `  .W W , , G , G Y . ",
"  . ......e & +.> ..;  .5 5 5 e & 6 5 5 5  .@.H H #.$.#.H @.H . ",
"  . O %.&.*.=.-.;.>.T ,.'.).!.~.{.].^./.y (.y _.:.<.[.}.|.1.2.. ",
"  . 3.4.[ 8 f 5.v 6.T G 7.!.8.9 ~ 1 9.0.a.V N b.c.d.e.f.g.h.4 . ",
"  . i.~ } } j.k.r l.m.n.) o.9 } } 7 p.q.r._ s.t.u.d.v.}.w.x.` . ",
"  . y.{ z.| o.2 A.B.C.Z 6 7 ~ } D.E.a 3 u , #.t.F.G.H.g.I.J.K.. ",
"  . *.L.L.] 2 M.3 N.O., +.E.L.P.] 9.M.C k , #.f.Q.}.}.I.R.S.T.. ",
"  . * l q 9.m v C U.V.(.W.X.k.k.a r 3 L Y.Z.`. +w.w.I..+++@+Z . ",
"  . #+$+A.%+3 C D u N W '.;.s M.s j L &+*+_ M _ h..+++=+. T.-+. ",
"  . O 2.;+B.>+,+Y @.M W '.'+)+!+L >+~+*+{+U H 2.]+W ^+X 4 @ a.. ",
"  . V W W G G G W W G X # Y : U Z , (.: G /+ .W (+, , G Z : ,.. ",
"  . M M M #.$.#.M M M  .H %.H #.$.#.H %.%. .2.@ @ 2.@ @ @ @ @ . ",
"  . T _+b.<.[.}.|.:+%., ' _.:.<+[.f.|.1.2., @ /././././.[+}+}+. ",
"  . H H.|+d.1+2+g..+3+ .N b.c.4+5+f.g.h.6+U 2./.[+[+[+[+}+m.m.. ",
"  . $.t.e.4+v.7+8+R.T.Z s.t.u.d.v.}.8+x.`  .#.[+/.[+[+}+}+9+0+. ",
"  . a+t.b+G.c+g.I..+~+G #.t.:.G.H.f.I..+Q , 2.[+[+}+}+m.0+0+0+. ",
"  . d+f.Q.e+f+I.g+S.K.W s.f.e+}.f+I.g+=+T.(.@ }+[+9+}+9+0+0+0+. ",
"  . h+i+g.I.I.R.++. n., H  +w.w.I.J.++@+(. .2.0+}+0+0+0+j+j+j+. ",
"  . H 4 k+J.++S.. Q l+G M _ h.J.++=+. ^+a.: @ }+0+0+0+0+j+6+m+. ",
"  . @ `.a.: ^+/+6+h+h+Z.@.2.]+G ` X n+@ l+U @ }+9+0+0+0+0+j+6+. ",
"  . . . . . . . . . . . . . . . . . . . . . . . . . . . . . . . "};
