/* XPM */
/* Drawn  by Nico Shirwing for the K Desktop Environment */
/* See http://www.kde.org */
static char*kreversi[]={
"32 32 12 1",
"a c #c0c0c0",
"e c #ffffff",
"d c #800000",
"i c #000080",
"f c #c00000",
"j c #0000c0",
"b c #ff0000",
"g c #0000ff",
"c c #ffc0c0",
"h c #c0c0ff",
"# c None",
". c #000000",
"...............................#",
".aaaaaaaaa.aaaaaaaaa.aaaaaaaaa..",
".aaaaaaaaa.aaabbbaaa.aaabbbaaa..",
".aaaaaaaaa.aabccbdaa.aabccbdaa..",
".aaaaaaaaa.abcebbfda.abcebbfda..",
".aaaaaaaaa.abcbbbfda.abcbbbfda..",
".aaaaaaaaa.abbbbffda.abbbbffda..",
".aaaaaaaaa.aadfffdaa.aadfffdaa..",
".aaaaaaaaa.aaadddaaa.aaadddaaa..",
".aaaaaaaaa.aaaaaaaaa.aaaaaaaaa..",
"................................",
".aaaaaaaaa.aaaaaaaaa.aaaaaaaaa..",
".aaabbbaaa.aaabbbaaa.aaagggaaa..",
".aabccbdaa.aabccbdaa.aaghhgiaa..",
".abcebbfda.abcebbfda.agheggjia..",
".abcbbbfda.abcbbbfda.aghgggjia..",
".abbbbffda.abbbbffda.aggggjjia..",
".aadfffdaa.aadfffdaa.aaijjjiaa..",
".aaadddaaa.aaadddaaa.aaaiiiaaa..",
".aaaaaaaaa.aaaaaaaaa.aaaaaaaaa..",
"................................",
".aaaaaaaaa.aaaaaaaaa.aaaaaaaaa..",
".aaagggaaa.aaagggaaa.aaaaaaaaa..",
".aaghhgiaa.aaghhgiaa.aaaaaaaaa..",
".agheggjia.agheggjia.aaaaaaaaa..",
".aghgggjia.aghgggjia.aaaaaaaaa..",
".aggggjjia.aggggjjia.aaaaaaaaa..",
".aaijjjiaa.aaijjjiaa.aaaaaaaaa..",
".aaaiiiaaa.aaaiiiaaa.aaaaaaaaa..",
".aaaaaaaaa.aaaaaaaaa.aaaaaaaaa..",
"................................",
"#..............................."};

