/* XPM */
static char * large_kreversi_xpm[] = {
"48 48 256 2",
"  	c None",
". 	c #000000",
"+ 	c #FFFFE0",
"@ 	c #FFFED9",
"# 	c #FFFAD6",
"$ 	c #FEF7D4",
"% 	c #FCF5D2",
"& 	c #FBF4D1",
"* 	c #C0BB9D",
"= 	c #767565",
"- 	c #F4F4DA",
"; 	c #F3ECCB",
"> 	c #F1EBCA",
", 	c #E8EFCD",
"' 	c #EADBBB",
") 	c #CD7766",
"! 	c #D26253",
"~ 	c #BE6556",
"{ 	c #B28B77",
"] 	c #DCD7B8",
"^ 	c #E9E4C4",
"/ 	c #E2DCBD",
"( 	c #737061",
"_ 	c #A7A38C",
": 	c #EBE5C4",
"< 	c #D3CEAF",
"[ 	c #D5D1B3",
"} 	c #CDD4B5",
"| 	c #CFB198",
"1 	c #C1BDA4",
"2 	c #C5C1A6",
"3 	c #B6B299",
"4 	c #F8F3D1",
"5 	c #F7F0CE",
"6 	c #F4EECD",
"7 	c #F3EDCC",
"8 	c #BCB89E",
"9 	c #807D6C",
"0 	c #E9E9C7",
"a 	c #EF241C",
"b 	c #FB0F0A",
"c 	c #F70200",
"d 	c #DC0401",
"e 	c #B70806",
"f 	c #98251F",
"g 	c #DDDBBC",
"h 	c #757362",
"i 	c #E6E0C1",
"j 	c #CDCCB0",
"k 	c #CBC4A6",
"l 	c #F70A06",
"m 	c #A2907D",
"n 	c #B2AE95",
"o 	c #BAB69C",
"p 	c #7D7A69",
"q 	c #E2E8C8",
"r 	c #FD403C",
"s 	c #FFB1B0",
"t 	c #FFB3B1",
"u 	c #F10D09",
"v 	c #D60C09",
"w 	c #AD0101",
"x 	c #710504",
"y 	c #9F8472",
"z 	c #DFDFBF",
"A 	c #CAC5A9",
"B 	c #937F6D",
"C 	c #B9B49A",
"D 	c #C8917C",
"E 	c #FFD4D3",
"F 	c #7E0403",
"G 	c #4C0E0C",
"H 	c #7B7867",
"I 	c #A5A18A",
"J 	c #DEE3C2",
"K 	c #FD0A06",
"L 	c #AEA992",
"M 	c #EFE8C7",
"N 	c #B8B39A",
"O 	c #DE463A",
"P 	c #FF0602",
"Q 	c #FFB3B2",
"R 	c #E80D09",
"S 	c #CA0C08",
"T 	c #AC0A07",
"U 	c #400101",
"V 	c #8A6B5D",
"W 	c #84816F",
"X 	c #ECE6C6",
"Y 	c #7D7C6D",
"Z 	c #F6F4D2",
"` 	c #E12F26",
" .	c #FFB6B4",
"..	c #FFBCBA",
"+.	c #C10B08",
"@.	c #9A0806",
"#.	c #340000",
"$.	c #594239",
"%.	c #A2A78F",
"&.	c #CCA38B",
"*.	c #B4B096",
"=.	c #D42821",
"-.	c #DF0D09",
";.	c #8F0805",
">.	c #580101",
",.	c #290101",
"'.	c #50362F",
").	c #767463",
"!.	c #E8E2C2",
"~.	c #7A7A69",
"{.	c #B4342C",
"].	c #1A0000",
"^.	c #685247",
"/.	c #F0F2D1",
"(.	c #A45A4D",
"_.	c #A40906",
":.	c #4B0201",
"<.	c #A19D87",
"[.	c #908D79",
"}.	c #B1AC93",
"|.	c #831F1A",
"1.	c #8F0000",
"2.	c #670403",
"3.	c #402520",
"4.	c #737363",
"5.	c #9E9A84",
"6.	c #83130F",
"7.	c #B7A48D",
"8.	c #5C1714",
"9.	c #230202",
"0.	c #717060",
"a.	c #9B9983",
"b.	c #D8D3B4",
"c.	c #C7C5A9",
"d.	c #8D7968",
"e.	c #59100E",
"f.	c #ADA88F",
"g.	c #797666",
"h.	c #34110F",
"i.	c #2A0908",
"j.	c #341915",
"k.	c #737261",
"l.	c #978977",
"m.	c #796759",
"n.	c #898672",
"o.	c #9A9481",
"p.	c #6F6D5D",
"q.	c #999680",
"r.	c #AAA68F",
"s.	c #A3A089",
"t.	c #646154",
"u.	c #938F7B",
"v.	c #9A9681",
"w.	c #9F9C86",
"x.	c #8F8C77",
"y.	c #9D9685",
"z.	c #716F5F",
"A.	c #737162",
"B.	c #6C6A5B",
"C.	c #6B695A",
"D.	c #686758",
"E.	c #D1CCAC",
"F.	c #858371",
"G.	c #97937E",
"H.	c #989580",
"I.	c #DBD5AC",
"J.	c #CDC8AB",
"K.	c #B37262",
"L.	c #767365",
"M.	c #6D6B5C",
"N.	c #96937E",
"O.	c #A09EA0",
"P.	c #5C5FAA",
"Q.	c #343CCD",
"R.	c #3136AE",
"S.	c #928F8D",
"T.	c #94917C",
"U.	c #9292AE",
"V.	c #1620EA",
"W.	c #0009FC",
"X.	c #000CE5",
"Y.	c #000CDA",
"Z.	c #0000AA",
"`.	c #030778",
" +	c #71707C",
".+	c #805C50",
"++	c #93917C",
"@+	c #353FF9",
"#+	c #ADB3FE",
"$+	c #000BB9",
"%+	c #000596",
"&+	c #000356",
"*+	c #7E7B73",
"=+	c #A8A58C",
"-+	c #D0D5FF",
";+	c #000468",
">+	c #262544",
",+	c #96917E",
"'+	c #989479",
")+	c #0513E3",
"!+	c #000CCB",
"~+	c #000BAF",
"{+	c #00088B",
"]+	c #00012A",
"^+	c #79766B",
"/+	c #AEB4FD",
"(+	c #010BA4",
"_+	c #00034A",
":+	c #000023",
"<+	c #63615E",
"[+	c #00013A",
"}+	c #00001A",
"|+	c #B7473B",
"1+	c #928D7B",
"2+	c #939076",
"3+	c #B2AD9E",
"4+	c #000AC4",
"5+	c #A46657",
"6+	c #8D8A77",
"7+	c #3C3F88",
"8+	c #000016",
"9+	c #262637",
"0+	c #98947F",
"a+	c #8A362D",
"b+	c #8B8774",
"c+	c #141669",
"d+	c #672E27",
"e+	c #60221E",
"f+	c #171747",
"g+	c #0E0D23",
"h+	c #696762",
"i+	c #403E46",
"j+	c #777868",
"k+	c #95917E",
"l+	c #504F44",
"m+	c #676557",
"n+	c #8C8976",
"o+	c #E0DAB0",
"p+	c #ADAAB1",
"q+	c #989592",
"r+	c #BCB894",
"s+	c #9C9982",
"t+	c #9B9782",
"u+	c #8F8B78",
"v+	c #88857C",
"w+	c #A8A48B",
"x+	c #96927D",
"y+	c #8E8B77",
"z+	c #9C9782",
"A+	c #95927D",
"B+	c #767368",
"C+	c #8C8975",
"D+	c #928E7A",
"E+	c #737065",
"F+	c #93907B",
"G+	c #958E7D",
"                                                                                                ",
"                                                                                                ",
"    . . . . . . . . . . . . . . . . . . . . . . . . . . . . . . . . . . . . . . . . . . . .     ",
"    . + @ @ @ @ # # # $ % & # * = - ; > , ' ) ! ~ { ] ^ / / ( _ : < [ } | ) ! ~ { 1 2 1 3 .     ",
"    . @ $ $ $ % & 4 5 5 6 7 5 8 9 - 0 0 ) a b c d e f { g ] h _ i j k ) a l c d e f m 1 n .     ",
"    . # $ $ % & 4 5 5 6 7 ; 5 o p - q ! r s t r u v w x y z h _ i A ! r s t r u v w x B C .     ",
"    . # & % 4 4 5 5 6 ; > > 6 C p - D b s E E t u v e F G 1 H I J ) K s E E t u v e F G L .     ",
"    . $ 4 4 5 5 6 7 ; > M M 7 N 9 - O P t E E Q R S T F U V W _ ] O P t E E Q R S T F U V .     ",
"    . & 5 5 6 6 ; > > M X X > 3 Y Z ` K r  ...r v +.@.x #.$.p %.&.` P r  ...r v +.@.x #.$..     ",
"    . 4 7 6 ; > > M M X : ^ M *.Y 4 =.l b b u -.+.T ;.>.,.'.).%.D =.l b b u -.+.T ;.>.,.$..     ",
"    . 5 > > > M M X X : ^ !.X n ~.Z {.d -.-.v +.T ;.x U ].^.9 _ | {.d -.-.v +.T ;.x U ].^..     ",
"    . 6 M M M X X : ^ !.i i : n ~./.(.w +.+.e _.;.x :.,.].B 9 <.] {.w +.+.e _.;.x :.,.].[..     ",
"    . > X X X : ^ !.!.i i / !.}.H /.k |.1.@.;.F 2.:.,.].3.A 4.5.g y 6.1.@.;.F 2.:.,.].'.n .     ",
"    . M : : ^ !.!.i i i / / i L ~.6 z 7.8.>.>.:.#.9.].3.n [ 0.a.b.c.d.e.>.>.:.#.9.].3.L f..     ",
"    . 7 M M M X : ^ ^ !.i i !.}.g.7 g i 1 $.h.i.9.j.^.2 b.< k.a.] 2 A l.'.h.i.9.j.m.N N f..     ",
"    . 8 8 8 o o o C N 3 3 *.o n.k.b.f.L n n o.p.( q.r.r.s.s.t.u.3 v.a.w.q.p t.( x.y.[.x.n..     ",
"    . z.).h h h = = = k.k.k.A.p.0.W p.0.z.k.= ~.~.4.p.p.p.z.t.( k.B.B.C.p.0.k.0.B.D.D.D.D..     ",
"    . Z Z Z /./.6 7 /./.7 > > E.F.> X ^ ^ q J / / J J / g / G.H./ [ [ b.I.E.J.J.< E.A c.2 .     ",
"    . / g J &.) ! ~ K.{ E.g ] I L.X E.j j D ) ! ~ K.L c.c.2 M.N.< o * O.P.Q.Q.R.P.S.*.f.s..     ",
"    . / g ) a l c d e f V 1 g I = ^ j A ! a P c d e f V 1 c.p.T.E.* U.V.W.W.X.Y.Z.`. +}.s..     ",
"    . J ! r s t r u v w x .+J._ h !.J.! r s t r u v w x V 2 z.++E.O.V.@+#+#+@+Y.$+%+&+*+=+.     ",
"    . &.b t E E t u v e F G B r.).q ) b s E E t u v e F G w.4.T.E.Q.W.#+-+-+#+Y.$+%+;+>+5..     ",
"    . ! P t E E Q R S T F U ^.,+g.J O P t E E Q R S T F U m.= '+1 )+W.#+-+-+#+!+~+{+;+]+^+.     ",
"    . ` P r  ...r v +.@.x #.$.p ~./ ` K r  ...r v +.@.x #.$.z.'+U.Y.W.@+/+/+Q.$+(+`._+:+<+.     ",
"    . =.l b b u -.+.T ;.>.,.'.H ~.g =.l b b u -.+.T ;.>.,.'.z.'+U.!+Y.)+Y.!+$+(+{+;+[+}+<+.     ",
"    . |+d -.-.v +.T ;.x U ].$.1+g.g {.d -.-.v +.T ;.x U ].^.).2+3+(+4+!+4+$+(+{+`._+]+}+L..     ",
"    . { w +.+.e _.;.x :.,.].m.<.k.z 5+w +.+.e _.;.x :.,.].B 0.6+k 7+%+(+(+%+{+;+&+]+8+9+0+.     ",
"    . j a+1.@.;.F 2.:.,.].3.* a.z.] 8 |.1.@.;.F 2.:.,.].'.o B.b+k o.c+`.`.;+&+_+]+8+}+*+w..     ",
"    . J.1 d+>.>.:.#.9.].3.r.J.G.0.b.1 r.e+>.>.:.#.9.].'.r.N C.n.1 n *+f+[+[+]+}+8+g+h+I H..     ",
"    . J.J.J.d.3.i.i.3.m.8 c.k H.0.g * 2 8 m.3.i.i.3.h C C N B.n.c.f.*.5.h+i+i+i+<+[.=+<.v..     ",
"    . k.L.= j+9 = L.~.9 g.A.4.t.D.k+p.0.A.H = 0.0.g.).p.p.p.l+k.g.C.C.M.z.p.D.C.p.C.D.m+m+.     ",
"    . b+6+n+n+x.2+2+x.b+n.n.n.p C.b+F.F.W W F.n.n.W 9 9 p 9 p.B.p g.g.g.g.= ).).A.( 0.z.z..     ",
"    . b.[ b.o+j p+p+1 < b.j [ _ k./ J.J.J.J.p+p+p+8 J.k 1 A g.n.< 8 8 o o C N 3 *.*.n n r..     ",
"    . 8 8 * O.P.Q.Q.R.P.q+* o }.M.j n r+O.P.Q.Q.R.P.S.n f.s.m+W C w.<.w.5.5.s+t+q.0+N.N.u+.     ",
"    . * * U.V.W.W.X.!+Z.`. +o L M.J.r+U.V.W.W.X.!+Z.`. +f.<.D.9 N w.<.w.w.5.a.t+q.H.G.G.x..     ",
"    . r+O.V.@+#+#+@+Y.$+%+&+v+*.M.< O.V.@+#+#+@+Y.$+%+&+*+w+D.9 3 w.w.5.5.s+t+q.0+G.x+x+y+.     ",
"    . O.Q.W.#+-+-+#+Y.$+%+;+>+w+M.E.Q.W.#+-+-+#+Y.$+%+;+>+s+B.9 *.5.5.s+z+t+q.0+G.A+T.T.6+.     ",
"    . P.)+W.#+-+-+#+!+~+{+;+]+Y p.k )+W.#+-+-+#+!+~+{+;+]+B+C.p n s+s+z+v.q.0+G.A+T.u.u.C+.     ",
"    . P.Y.W.@+/+/+Q.$+(+`.&+:+<+z.1 Y.W.@+/+/+Q.$+(+`.&+:+<+m+p }.v.t+v.H.0+G.A+T.u.D+D+b+.     ",
"    . P.4+Y.Y.Y.!+$+(+{+;+[+8+<+M.1 4+Y.Y.Y.!+$+(+{+;+[+8+<+D.p }.q.q.H.G.x+A+T.u.[.[.[.n..     ",
"    . S.(+4+!+4+$+(+{+`._+]+}+^+C.k (+4+!+4+$+(+{+`._+]+}+E+D.g.L G.0+G.A+T.F+u.[.x.x.x.n..     ",
"    . f.7+%+(+(+%+{+;+&+]+8+9+5.D.k 7+%+(+(+%+{+;+&+]+8+9+T.m+g.f.x+G.A+T.u.D+[.x.x.6+y+F..     ",
"    . }.G+c+`.`.;+&+_+:+}+}+*+w+D.1 u+c+`.`.;+&+_+:+}+}+^+s+t.= r.T.A+F+u.D+[.x.y+6+C+C+W .     ",
"    . =+f.*+f+[+[+]+}+8+g+h+r.5.m+8 w+*+f+[+[+]+}+8+g+<+w.T.t.h L F+T.u.D+[.[.u+y+n+C+C+F..     ",
"    . <.I L v.h+i+i+i+<+u.f._ 5.m+* w.=+++h+i+i+i+<+b+s.s+A+t.).w+y+x.y+6+C+b+b+n.n.F.F.9 .     ",
"    . . . . . . . . . . . . . . . . . . . . . . . . . . . . . . . . . . . . . . . . . . . .     ",
"                                                                                                ",
"                                                                                                "};
