/* XPM */
static char * Reversi_xpm[] = {
"32 32 9 1",
" 	c #000000000000",
".	c #DF7DAAAA69A6",
"X	c #082008200820",
"o	c #965804100000",
"O	c #000000009658",
"+	c #41031C712081",
"@	c #E79D45144103",
"#	c #41034514E79D",
"$	c #C71B8A28C71B",
"                                ",
" ...............X.............. ",
" ...............X.............. ",
" ....oooooo.....X.....OOOOO+... ",
" ...o@@ooooo....X...+O##OOOO+.. ",
" ..o@.@oooooo...X...O###OOOOO+. ",
" ..o@@ooooooo+..X...O##OOOOOOO. ",
" ..oooooooooo+..X..+OOOOOOOOOO+ ",
" ..oooooooooo+..X..+OOOOOOOOOO+ ",
" ..oooooooooo++.X...OOOOOOOOOX+ ",
" ..ooooooooo++..X...OOOOOOOOOX+ ",
" ...ooooooo+++..X...+OOOOOOOX++ ",
" ....++++++++...X.....+OOOXX++. ",
" .....++++++....X......++++++.. ",
" ...............X.............. ",
" ...............X.............. ",
" XXXXXXXXXXXXXXXXXXXXXXXXXXXXXX ",
" ...............X.............. ",
" ...............X.............. ",
" ....++OOO......X.....+oooo.... ",
" ...+OOOOOO+....X....ooooooo... ",
" ..+O$#OOOOOO...X...o@.@ooooo+. ",
" ..O###OOOOOO...X...o@@oooooo+. ",
" ..OOOOOOOOOO+..X..+ooooooooo++ ",
" ..OOOOOOOOOO+..X..+ooooooooo++ ",
" ..OOOOOOOOOO++.X...ooooooooo++ ",
" ..OOOOOOOOOO++.X...oooooooo+X+ ",
" ..+OOOOOOOOX+..X...oooooooo+++ ",
" ....OOOOOX++...X....+oooo++++. ",
" .....XXXX+++...X......+++++++. ",
" ........+......X........++.... ",
"                                "};
