/* XPM */
static char * hint_xpm[] = {
"22 22 4 1",
" 	c None",
".	c #000086",
"X	c #868286",
"o	c #000000",
"                      ",
"                      ",
"            .....X    ",
"           ..  X..X   ",
"          ..X   ...   ",
"          ..X   ...   ",
"          X..  X..X   ",
"               ..X    ",
"              ..      ",
"     oooo    ..X      ",
"   oooooooo  ..X      ",
"  oooooooooo          ",
"  oooo  oooo ...      ",
" oooo oo oooo...      ",
" ooo oooo ooo         ",
" ooo oooo ooo         ",
" oooo oo oooo         ",
"  oooo  oooo          ",
"  oooooooooo          ",
"   oooooooo           ",
"     oooo             ",
"                      "};
