/* XPM */
static char *logo[] = {
/* width height num_colors chars_per_pixel */
"    81    81       62            1",
/* colors */
". c #000000",
"# c #000058",
"a c #000060",
"b c #000068",
"c c #000070",
"d c #000078",
"e c #000080",
"f c #000088",
"g c #000090",
"h c #000098",
"i c #080020",
"j c #080030",
"k c #080090",
"l c #100880",
"m c #101078",
"n c #1010b8",
"o c #1818b8",
"p c #282808",
"q c #380800",
"r c #382800",
"s c #404000",
"t c #404020",
"u c #404040",
"v c #4040d8",
"w c #484000",
"x c #484800",
"y c #580000",
"z c #600000",
"A c #604000",
"B c #606000",
"C c #680000",
"D c #684000",
"E c #686808",
"F c #6868f8",
"G c #686c68",
"H c #700000",
"I c #706800",
"J c #780000",
"K c #784000",
"L c #800000",
"M c #880000",
"N c #881000",
"O c #900000",
"P c #900008",
"Q c #901000",
"R c #980000",
"S c #b81010",
"T c #b81818",
"U c #d09c60",
"V c #d83838",
"W c #d8a060",
"X c #d8a460",
"Y c #d8a468",
"Z c #d8a868",
"0 c #d8ac68",
"1 c #d8dcd8",
"2 c #e0a868",
"3 c #e0ac68",
"4 c #e0b068",
"5 c #e0b070",
"6 c #e0b470",
"7 c #f86868",
/* pixels */
"GGGGGGGGGGGGGGGGGGGGGGGGGGGGGGGGGGGGGGGGGGGGGGGGGGGGGGGGGGGGGGGGGGGGGGGGGGGGGGGG1",
"Z3XZ30WXWZ.3XZ30WXWZ.3XZ30WXWZ.3XZ30WXWZ.3XZ30WXWZ.3XZ30WXWZ.3XZ30WXWZ.3XZ30WXWZ1",
"33WZ30YWY4.3WZ30YWY4.3WZ30YWY4.3WZ30YWY4.3WZ30YWY4.3WZ30YWY4.3WZ30YWY4.3WZ30YWY41",
"Z3Z32ZXXXZ.3Z32ZXXXZ.3Z32ZXXXZ.3Z32ZXXXZ.3Z32ZXXXZ.3Z32ZXXXZ.3Z32ZXXXZ.3Z32ZXXXZ1",
"Z3YZZ0ZXYZ.3YZZ0ZXYZ.3YZZ0ZXYZ.3YZZ0ZXYZ.3YZZ0ZXYZ.3YZZ0ZXYZ.3YZZ0ZXYZ.3YZZ0ZXYZ1",
"X3ZZZ0ZXZZ.3ZZZ0ZXZZ.3ZZZ0ZXZZ.3ZZZ0ZXZZ.3ZZZ0ZXZZ.3ZZZ0ZXZZ.3ZZZ0ZXZZ.3ZZZ0ZXZZ1",
"Z0Z330ZZXZ.0Z330ZZXZ.0Z330ZZXZ.0Z330ZZXZ.0Z330ZZXZ.0Z330ZZXZ.0Z330ZZXZ.0Z330ZZXZ1",
"U00330ZW06.00330ZW06.00330ZW06.00330ZW06.00330ZW06.00330ZW06.00330ZW06.00330ZW061",
"YU033ZYZW6.U033ZYZW6.U033ZYZW6.U033ZYZW6.U033ZYZW6.U033ZYZW6.U033ZYZW6.U033ZYZW61",
"X35Y0Z0YW5.35Y0Z0YW5.35Y0Z0YW5.35Y0Z0YW5.35Y0Z0YW5.35Y0Z0YW5.35Y0Z0YW5.35Y0Z0YW51",
"................................................................................1",
"Z3XZ30WXWZ.3XZ30WXWZ.3XZ30WXWZ.3XZ30WXWZ.3XZ30WXWZ.3XZ30WXWZ.3XZ30WXWZ.3XZ30WXWZ1",
"33WZ30YWY4.3WZ30YWY4.3WZ30YWY4.3WZ30YWY4.3WZ30YWY4.3WZ30YWY4.3WZ30YWY4.3WZ30YWY41",
"Z3Z32ZXXXZ.3Z32ZXXXZ.3Z32ZXXXZ.3Z32ZXXXZ.3Z32ZXXXZ.3Z32ZXXXZ.3Z32ZXXXZ.3Z32ZXXXZ1",
"Z3YZZ0ZXYZ.3YZZ0ZXYZ.3YZZ0ZXYZ.3YZZ0ZXYZ.3YZZ0ZXYZ.3YZZ0ZXYZ.3YZZ0ZXYZ.3YZZ0ZXYZ1",
"X3ZZZ0ZXZZ.3ZZZ0ZXZZ.3ZZZ0ZXZZ.3ZZZ0ZXZZ.3ZZZ0ZXZZ.3ZZZ0ZXZZ.3ZZZ0ZXZZ.3ZZZ0ZXZZ1",
"Z0Z330ZZXZ.0Z330ZZXZ.0Z330ZZXZ.0Z330ZZXZ.0Z330ZZXZ.0Z330ZZXZ.0Z330ZZXZ.0Z330ZZXZ1",
"U00330ZW06.00330ZW06.00330ZW06.00330ZW06.00330ZW06.00330ZW06.00330ZW06.00330ZW061",
"YU033ZYZW6.U033ZYZW6.U033ZYZW6.U033ZYZW6.U033ZYZW6.U033ZYZW6.U033ZYZW6.U033ZYZW61",
"X35Y0Z0YW5.35Y0Z0YW5.35Y0Z0YW5.35Y0Z0YW5.35Y0Z0YW5.35Y0Z0YW5.35Y0Z0YW5.35Y0Z0YW51",
"................................................................................1",
"Z3XZ30WXWZ.3XZ30WXWZ.3XZ30WXWZ.3XZ30WXWZ.3XZ30WXWZ.3XZ30WXWZ.3XZ30WXWZ.3XZ30WXWZ1",
"33WZ30YWY4.3WZ30YWY4.3WElmYWY4.3WZ30YWY4.3WIQNYWY4.3WZ30YWY4.3WZ30YWY4.3WZ30YWY41",
"Z3Z32ZXXXZ.3Z32ZXXXZ.3uFohftXZ.3Z32ZXXXZ.3K7TRMAXZ.3Z32ZXXXZ.3Z32ZXXXZ.3Z32ZXXXZ1",
"Z3YZZ0ZXYZ.3YZZ0ZXYZ.3nvkgebYZ.3YZZ0ZXYZ.3SVPOLCYZ.3YZZ0ZXYZ.3YZZ0ZXYZ.3YZZ0ZXYZ1",
"X3ZZZ0ZXZZ.3ZZZ0ZXZZ.3hhffdbxZ.3ZZZ0ZXZZ.3RRMMJCxZ.3ZZZ0ZXZZ.3ZZZ0ZXZZ.3ZZZ0ZXZZ1",
"Z0Z330ZZXZ.0Z330ZZXZ.0gffec#xZ.0Z330ZZXZ.0OMMLHyxZ.0Z330ZZXZ.0Z330ZZXZ.0Z330ZZXZ1",
"U00330ZW06.00330ZW06.0tddcapB6.00330ZW06.0DJJHzrB6.00330ZW06.00330ZW06.00330ZW061",
"YU033ZYZW6.U033ZYZW6.U03jisxW6.U033ZYZW6.U03qqwxW6.U033ZYZW6.U033ZYZW6.U033ZYZW61",
"X35Y0Z0YW5.35Y0Z0YW5.35Y0Z0YW5.35Y0Z0YW5.35Y0Z0YW5.35Y0Z0YW5.35Y0Z0YW5.35Y0Z0YW51",
"................................................................................1",
"Z3XZ30WXWZ.3XZ30WXWZ.3XZ30WXWZ.3XZ30WXWZ.3XZ30WXWZ.3XZ30WXWZ.3XZ30WXWZ.3XZ30WXWZ1",
"33WZ30YWY4.3WZ30YWY4.3WZ30YWY4.3WIQNYWY4.3WIQNYWY4.3WZ30YWY4.3WZ30YWY4.3WZ30YWY41",
"Z3Z32ZXXXZ.3Z32ZXXXZ.3Z32ZXXXZ.3K7TRMAXZ.3K7TRMAXZ.3Z32ZXXXZ.3Z32ZXXXZ.3Z32ZXXXZ1",
"Z3YZZ0ZXYZ.3YZZ0ZXYZ.3YZZ0ZXYZ.3SVPOLCYZ.3SVPOLCYZ.3YZZ0ZXYZ.3YZZ0ZXYZ.3YZZ0ZXYZ1",
"X3ZZZ0ZXZZ.3ZZZ0ZXZZ.3ZZZ0ZXZZ.3RRMMJCxZ.3RRMMJCxZ.3ZZZ0ZXZZ.3ZZZ0ZXZZ.3ZZZ0ZXZZ1",
"Z0Z330ZZXZ.0Z330ZZXZ.0Z330ZZXZ.0OMMLHyxZ.0OMMLHyxZ.0Z330ZZXZ.0Z330ZZXZ.0Z330ZZXZ1",
"U00330ZW06.00330ZW06.00330ZW06.0DJJHzrB6.0DJJHzrB6.00330ZW06.00330ZW06.00330ZW061",
"YU033ZYZW6.U033ZYZW6.U033ZYZW6.U03qqwxW6.U03qqwxW6.U033ZYZW6.U033ZYZW6.U033ZYZW61",
"X35Y0Z0YW5.35Y0Z0YW5.35Y0Z0YW5.35Y0Z0YW5.35Y0Z0YW5.35Y0Z0YW5.35Y0Z0YW5.35Y0Z0YW51",
"................................................................................1",
"Z3XZ30WXWZ.3XZ30WXWZ.3XZ30WXWZ.3XZ30WXWZ.3XZ30WXWZ.3XZ30WXWZ.3XZ30WXWZ.3XZ30WXWZ1",
"33WZ30YWY4.3WZ30YWY4.3WIQNYWY4.3WElmYWY4.3WElmYWY4.3WZ30YWY4.3WZ30YWY4.3WZ30YWY41",
"Z3Z32ZXXXZ.3Z32ZXXXZ.3K7TRMAXZ.3uFohftXZ.3uFohftXZ.3Z32ZXXXZ.3Z32ZXXXZ.3Z32ZXXXZ1",
"Z3YZZ0ZXYZ.3YZZ0ZXYZ.3SVPOLCYZ.3nvkgebYZ.3nvkgebYZ.3YZZ0ZXYZ.3YZZ0ZXYZ.3YZZ0ZXYZ1",
"X3ZZZ0ZXZZ.3ZZZ0ZXZZ.3RRMMJCxZ.3hhffdbxZ.3hhffdbxZ.3ZZZ0ZXZZ.3ZZZ0ZXZZ.3ZZZ0ZXZZ1",
"Z0Z330ZZXZ.0Z330ZZXZ.0OMMLHyxZ.0gffec#xZ.0gffec#xZ.0Z330ZZXZ.0Z330ZZXZ.0Z330ZZXZ1",
"U00330ZW06.00330ZW06.0DJJHzrB6.0tddcapB6.0tddcapB6.00330ZW06.00330ZW06.00330ZW061",
"YU033ZYZW6.U033ZYZW6.U03qqwxW6.U03jisxW6.U03jisxW6.U033ZYZW6.U033ZYZW6.U033ZYZW61",
"X35Y0Z0YW5.35Y0Z0YW5.35Y0Z0YW5.35Y0Z0YW5.35Y0Z0YW5.35Y0Z0YW5.35Y0Z0YW5.35Y0Z0YW51",
"................................................................................1",
"Z3XZ30WXWZ.3XZ30WXWZ.3XZ30WXWZ.3XZ30WXWZ.3XZ30WXWZ.3XZ30WXWZ.3XZ30WXWZ.3XZ30WXWZ1",
"33WZ30YWY4.3WZ30YWY4.3WZ30YWY4.3WZ30YWY4.3WElmYWY4.3WElmYWY4.3WElmYWY4.3WZ30YWY41",
"Z3Z32ZXXXZ.3Z32ZXXXZ.3Z32ZXXXZ.3Z32ZXXXZ.3uFohftXZ.3uFohftXZ.3uFohftXZ.3Z32ZXXXZ1",
"Z3YZZ0ZXYZ.3YZZ0ZXYZ.3YZZ0ZXYZ.3YZZ0ZXYZ.3nvkgebYZ.3nvkgebYZ.3nvkgebYZ.3YZZ0ZXYZ1",
"X3ZZZ0ZXZZ.3ZZZ0ZXZZ.3ZZZ0ZXZZ.3ZZZ0ZXZZ.3hhffdbxZ.3hhffdbxZ.3hhffdbxZ.3ZZZ0ZXZZ1",
"Z0Z330ZZXZ.0Z330ZZXZ.0Z330ZZXZ.0Z330ZZXZ.0gffec#xZ.0gffec#xZ.0gffec#xZ.0Z330ZZXZ1",
"U00330ZW06.00330ZW06.00330ZW06.00330ZW06.0tddcapB6.0tddcapB6.0tddcapB6.00330ZW061",
"YU033ZYZW6.U033ZYZW6.U033ZYZW6.U033ZYZW6.U03jisxW6.U03jisxW6.U03jisxW6.U033ZYZW61",
"X35Y0Z0YW5.35Y0Z0YW5.35Y0Z0YW5.35Y0Z0YW5.35Y0Z0YW5.35Y0Z0YW5.35Y0Z0YW5.35Y0Z0YW51",
"................................................................................1",
"Z3XZ30WXWZ.3XZ30WXWZ.3XZ30WXWZ.3XZ30WXWZ.3XZ30WXWZ.3XZ30WXWZ.3XZ30WXWZ.3XZ30WXWZ1",
"33WZ30YWY4.3WZ30YWY4.3WZ30YWY4.3WZ30YWY4.3WZ30YWY4.3WZ30YWY4.3WZ30YWY4.3WZ30YWY41",
"Z3Z32ZXXXZ.3Z32ZXXXZ.3Z32ZXXXZ.3Z32ZXXXZ.3Z32ZXXXZ.3Z32ZXXXZ.3Z32ZXXXZ.3Z32ZXXXZ1",
"Z3YZZ0ZXYZ.3YZZ0ZXYZ.3YZZ0ZXYZ.3YZZ0ZXYZ.3YZZ0ZXYZ.3YZZ0ZXYZ.3YZZ0ZXYZ.3YZZ0ZXYZ1",
"X3ZZZ0ZXZZ.3ZZZ0ZXZZ.3ZZZ0ZXZZ.3ZZZ0ZXZZ.3ZZZ0ZXZZ.3ZZZ0ZXZZ.3ZZZ0ZXZZ.3ZZZ0ZXZZ1",
"Z0Z330ZZXZ.0Z330ZZXZ.0Z330ZZXZ.0Z330ZZXZ.0Z330ZZXZ.0Z330ZZXZ.0Z330ZZXZ.0Z330ZZXZ1",
"U00330ZW06.00330ZW06.00330ZW06.00330ZW06.00330ZW06.00330ZW06.00330ZW06.00330ZW061",
"YU033ZYZW6.U033ZYZW6.U033ZYZW6.U033ZYZW6.U033ZYZW6.U033ZYZW6.U033ZYZW6.U033ZYZW61",
"X35Y0Z0YW5.35Y0Z0YW5.35Y0Z0YW5.35Y0Z0YW5.35Y0Z0YW5.35Y0Z0YW5.35Y0Z0YW5.35Y0Z0YW51",
"................................................................................1",
"Z3XZ30WXWZ.3XZ30WXWZ.3XZ30WXWZ.3XZ30WXWZ.3XZ30WXWZ.3XZ30WXWZ.3XZ30WXWZ.3XZ30WXWZ1",
"33WZ30YWY4.3WZ30YWY4.3WZ30YWY4.3WZ30YWY4.3WZ30YWY4.3WZ30YWY4.3WZ30YWY4.3WZ30YWY41",
"Z3Z32ZXXXZ.3Z32ZXXXZ.3Z32ZXXXZ.3Z32ZXXXZ.3Z32ZXXXZ.3Z32ZXXXZ.3Z32ZXXXZ.3Z32ZXXXZ1",
"Z3YZZ0ZXYZ.3YZZ0ZXYZ.3YZZ0ZXYZ.3YZZ0ZXYZ.3YZZ0ZXYZ.3YZZ0ZXYZ.3YZZ0ZXYZ.3YZZ0ZXYZ1",
"X3ZZZ0ZXZZ.3ZZZ0ZXZZ.3ZZZ0ZXZZ.3ZZZ0ZXZZ.3ZZZ0ZXZZ.3ZZZ0ZXZZ.3ZZZ0ZXZZ.3ZZZ0ZXZZ1",
"Z0Z330ZZXZ.0Z330ZZXZ.0Z330ZZXZ.0Z330ZZXZ.0Z330ZZXZ.0Z330ZZXZ.0Z330ZZXZ.0Z330ZZXZ1",
"U00330ZW06.00330ZW06.00330ZW06.00330ZW06.00330ZW06.00330ZW06.00330ZW06.00330ZW061",
"YU033ZYZW6.U033ZYZW6.U033ZYZW6.U033ZYZW6.U033ZYZW6.U033ZYZW6.U033ZYZW6.U033ZYZW61",
"X35Y0Z0YW5.35Y0Z0YW5.35Y0Z0YW5.35Y0Z0YW5.35Y0Z0YW5.35Y0Z0YW5.35Y0Z0YW5.35Y0Z0YW51",
"YZ3ZZ0Z33W.Z3ZZ0Z33W.Z3ZZ0Z33W.Z3ZZ0Z33W.Z3ZZ0Z33W.Z3ZZ0Z33W.Z3ZZ0Z33W.Z3ZZ0Z33W1"
};
