/* XPM */
static char * image_name[] = {
"22 22 3 1",
" 	c None",
".	c #FFFFFF",
"X	c #FF0000",
"                      ",
"                      ",
"                      ",
"                      ",
"       .X.X.X.        ",
"      .X.X.X.X.       ",
"     .X.X.X.X.X.      ",
"    .X.X.X.X.X.X.     ",
"    X.X.X.X.X.X.X     ",
"    .X.X.X.X.X.X.     ",
"    X.X.X.X.X.X.X     ",
"    .X.X.X.X.X.X.     ",
"    X.X.X.X.X.X.X     ",
"    .X.X.X.X.X.X.     ",
"     .X.X.X.X.X.      ",
"      .X.X.X.X.       ",
"       .X.X.X.        ",
"                      ",
"                      ",
"                      ",
"                      ",
"                      "};
